<svg width="24" height="24" viewBox="0 0 24 24" fill="none" xmlns="http://www.w3.org/2000/svg">
<path d="M13 20H4C3.73478 20 3.48043 19.8946 3.29289 19.7071C3.10536 19.5196 3 19.2652 3 19V10C3 9.73478 3.10536 9.48043 3.29289 9.29289C3.48043 9.10536 3.73478 9 4 9H7M13 20H16C16.2652 20 16.5196 19.8946 16.7071 19.7071C16.8946 19.5196 17 19.2652 17 19V16.5M13 20V19" stroke="#F9C900" stroke-width="2" stroke-linecap="round" stroke-linejoin="round"/>
<path fill-rule="evenodd" clip-rule="evenodd" d="M22 6C22 5.46957 21.7893 4.96086 21.4142 4.58579C21.0391 4.21071 20.5304 4 20 4H8C7.46957 4 6.96086 4.21071 6.58579 4.58579C6.21071 4.96086 6 5.46957 6 6V15C6 15.5304 6.21071 16.0391 6.58579 16.4142C6.96086 16.7893 7.46957 17 8 17H20C20.5304 17 21.0391 16.7893 21.4142 16.4142C21.7893 16.0391 22 15.5304 22 15V6ZM18 6.001C18 6.26622 17.8946 6.52057 17.7071 6.70811C17.5196 6.89564 17.2652 7.001 17 7.001C16.7348 7.001 16.4804 6.89564 16.2929 6.70811C16.1054 6.52057 16 6.26622 16 6.001C16 5.73578 16.1054 5.48043 16.2929 5.29289C16.4804 5.10536 16.7348 5 17 5C17.2652 5 17.5196 5.10536 17.7071 5.29289C17.8946 5.48043 18 5.73578 18 6.001ZM17 11.001C17.2652 11.001 17.5196 10.8956 17.7071 10.7081C17.8946 10.5206 18 10.2662 18 10.001V10C18 9.73478 17.8946 9.48043 17.7071 9.29289C17.5196 9.10536 17.2652 9 17 9C16.7348 9 16.4804 9.10536 16.2929 9.29289C16.1054 9.48043 16 9.73478 16 10V10.001C16 10.2662 16.1054 10.5206 16.2929 10.7081C16.4804 10.8956 16.7348 11.001 17 11.001ZM18 14.001C18 14.2662 17.8946 14.5206 17.7071 14.7081C17.5196 14.8956 17.2652 15.001 17 15.001C16.7348 15.001 16.4804 14.8956 16.2929 14.7081C16.1054 14.5206 16 14.2662 16 14.001V14C16 13.7348 16.1054 13.4804 16.2929 13.2929C16.4804 13.1054 16.7348 13 17 13C17.2652 13 17.5196 13.1054 17.7071 13.2929C17.8946 13.4804 18 13.7348 18 14V14.001Z" fill="#F9C900"/>
</svg>
