<svg width="24" height="24" viewBox="0 0 24 24" fill="none" xmlns="http://www.w3.org/2000/svg">
<path d="M18.5 3H16C15.8674 3 15.7402 3.05268 15.6464 3.14645C15.5527 3.24021 15.5 3.36739 15.5 3.5V3.559L19 6.359V3.5C19 3.36739 18.9473 3.24021 18.8536 3.14645C18.7598 3.05268 18.6326 3 18.5 3Z" fill="#F9C900"/>
<path fill-rule="evenodd" clip-rule="evenodd" d="M10.75 9.5C10.75 9.16848 10.8817 8.85054 11.1161 8.61612C11.3505 8.3817 11.6685 8.25 12 8.25C12.3315 8.25 12.6495 8.3817 12.8839 8.61612C13.1183 8.85054 13.25 9.16848 13.25 9.5C13.25 9.83152 13.1183 10.1495 12.8839 10.3839C12.6495 10.6183 12.3315 10.75 12 10.75C11.6685 10.75 11.3505 10.6183 11.1161 10.3839C10.8817 10.1495 10.75 9.83152 10.75 9.5Z" fill="#F9C900"/>
<path fill-rule="evenodd" clip-rule="evenodd" d="M20.75 10.9599L21.532 11.5859C21.6877 11.7072 21.8849 11.7622 22.0809 11.7391C22.2769 11.716 22.4559 11.6165 22.5791 11.4623C22.7022 11.3081 22.7596 11.1115 22.7388 10.9153C22.7181 10.719 22.6207 10.5388 22.468 10.4139L14.343 3.91385C13.678 3.38172 12.8517 3.0918 12 3.0918C11.1483 3.0918 10.322 3.38172 9.657 3.91385L1.532 10.4139C1.37658 10.5381 1.27689 10.719 1.25486 10.9168C1.23282 11.1145 1.29025 11.3129 1.4145 11.4684C1.53875 11.6238 1.71966 11.7235 1.91741 11.7455C2.11517 11.7675 2.31358 11.7101 2.469 11.5859L3.25 10.9599V21.2499H2C1.80109 21.2499 1.61032 21.3289 1.46967 21.4695C1.32902 21.6102 1.25 21.8009 1.25 21.9999C1.25 22.1988 1.32902 22.3895 1.46967 22.5302C1.61032 22.6708 1.80109 22.7499 2 22.7499H22C22.1989 22.7499 22.3897 22.6708 22.5303 22.5302C22.671 22.3895 22.75 22.1988 22.75 21.9999C22.75 21.8009 22.671 21.6102 22.5303 21.4695C22.3897 21.3289 22.1989 21.2499 22 21.2499H20.75V10.9599ZM9.25 9.49985C9.25 8.77051 9.53973 8.07104 10.0555 7.55531C10.5712 7.03959 11.2707 6.74985 12 6.74985C12.7293 6.74985 13.4288 7.03959 13.9445 7.55531C14.4603 8.07104 14.75 8.77051 14.75 9.49985C14.75 10.2292 14.4603 10.9287 13.9445 11.4444C13.4288 11.9601 12.7293 12.2499 12 12.2499C11.2707 12.2499 10.5712 11.9601 10.0555 11.4444C9.53973 10.9287 9.25 10.2292 9.25 9.49985ZM12.05 13.2499C12.714 13.2499 13.287 13.2499 13.746 13.3119C14.238 13.3779 14.709 13.5269 15.091 13.9089C15.473 14.2909 15.622 14.7619 15.688 15.2539C15.746 15.6839 15.75 16.2139 15.75 16.8269V21.2499H14.25V16.9999C14.25 16.2719 14.248 15.7999 14.202 15.4539C14.158 15.1289 14.088 15.0269 14.03 14.9699C13.973 14.9129 13.871 14.8419 13.546 14.7979C13.199 14.7519 12.728 14.7499 12 14.7499C11.272 14.7499 10.8 14.7519 10.454 14.7979C10.129 14.8419 10.027 14.9129 9.97 14.9699C9.913 15.0269 9.842 15.1289 9.798 15.4539C9.752 15.8009 9.75 16.2719 9.75 16.9999V21.2499H8.25V16.9499C8.25 16.2859 8.25 15.7129 8.312 15.2539C8.378 14.7619 8.527 14.2909 8.909 13.9089C9.291 13.5269 9.763 13.3779 10.254 13.3119C10.713 13.2499 11.286 13.2499 11.951 13.2499H12.049H12.05Z" fill="#F9C900"/>
<path fill-rule="evenodd" clip-rule="evenodd" d="M10.75 9.5C10.75 9.16848 10.8817 8.85054 11.1161 8.61612C11.3505 8.3817 11.6685 8.25 12 8.25C12.3315 8.25 12.6495 8.3817 12.8839 8.61612C13.1183 8.85054 13.25 9.16848 13.25 9.5C13.25 9.83152 13.1183 10.1495 12.8839 10.3839C12.6495 10.6183 12.3315 10.75 12 10.75C11.6685 10.75 11.3505 10.6183 11.1161 10.3839C10.8817 10.1495 10.75 9.83152 10.75 9.5Z" fill="#F9C900"/>
</svg>
