<svg width="14" height="15" viewBox="0 0 14 15" fill="none" xmlns="http://www.w3.org/2000/svg">
<g id="Frame">
<path id="Vector" d="M2.6 2.68262L11.4 11.6826M8.1 8.44043C7.80808 8.70764 7.4226 8.87012 7 8.87012C6.08873 8.87012 5.35 8.1146 5.35 7.18262C5.35 6.75042 5.50887 6.35617 5.77014 6.05762M11.1843 9.21195C11.4985 8.93214 11.7796 8.65069 12.0217 8.39025C12.6594 7.70396 12.6594 6.66128 12.0217 5.97499C10.946 4.81749 9.09853 3.24512 7 3.24512C6.50975 3.24512 6.03319 3.33093 5.57699 3.47723M3.975 4.25952C3.17279 4.78324 2.4887 5.42581 1.97834 5.97498C1.34055 6.66128 1.34055 7.70396 1.97834 8.39025C3.05402 9.54774 4.90147 11.1201 7 11.1201C8.02744 11.1201 8.9947 10.7432 9.84066 10.2226" stroke="#EDC003" stroke-linecap="round"/>
</g>
</svg>
