<svg width="23" height="23" viewBox="0 0 23 23" fill="none" xmlns="http://www.w3.org/2000/svg">
<path d="M0.35 11.2033C0.441925 11.2722 0.54653 11.3224 0.657842 11.3509C0.769153 11.3794 0.884992 11.3858 0.998744 11.3695C1.1125 11.3533 1.22193 11.3148 1.32081 11.2562C1.41968 11.1977 1.50606 11.1202 1.575 11.0283C2.10477 10.3219 2.79173 9.74861 3.58147 9.35374C4.37121 8.95887 5.24204 8.75329 6.125 8.75329C7.00796 8.75329 7.87879 8.95887 8.66853 9.35374C9.45827 9.74861 10.1452 10.3219 10.675 11.0283C10.8144 11.2138 11.0218 11.3363 11.2515 11.3689C11.4812 11.4015 11.7145 11.3416 11.9 11.2022C11.9661 11.153 12.0247 11.0944 12.0739 11.0283C12.6037 10.3219 13.2906 9.74861 14.0804 9.35374C14.8701 8.95887 15.741 8.75329 16.6239 8.75329C17.5069 8.75329 18.3777 8.95887 19.1674 9.35374C19.9572 9.74861 20.6441 10.3219 21.1739 11.0283C21.3133 11.2139 21.5207 11.3366 21.7505 11.3693C21.9804 11.4021 22.2138 11.3421 22.3995 11.2027C22.5851 11.0634 22.7078 10.8559 22.7405 10.6261C22.7732 10.3963 22.7133 10.1629 22.5739 9.9772C21.7994 8.93887 20.7666 8.12136 19.5781 7.60595C20.2297 7.0111 20.6861 6.23318 20.8876 5.37426C21.0891 4.51535 21.0263 3.61558 20.7073 2.79304C20.3882 1.9705 19.828 1.26362 19.1001 0.765172C18.3721 0.266726 17.5105 0 16.6283 0C15.746 0 14.8844 0.266726 14.1565 0.765172C13.4286 1.26362 12.8683 1.9705 12.5493 2.79304C12.2303 3.61558 12.1674 4.51535 12.3689 5.37426C12.5704 6.23318 13.0269 7.0111 13.6784 7.60595C12.8203 7.97701 12.0408 8.5082 11.3816 9.17111C10.7223 8.5082 9.9428 7.97701 9.08469 7.60595C9.73622 7.0111 10.1927 6.23318 10.3942 5.37426C10.5957 4.51535 10.5328 3.61558 10.2138 2.79304C9.89481 1.9705 9.33457 1.26362 8.60664 0.765172C7.8787 0.266726 7.01708 0 6.13484 0C5.25261 0 4.39098 0.266726 3.66305 0.765172C2.93511 1.26362 2.37488 1.9705 2.05587 2.79304C1.73686 3.61558 1.67398 4.51535 1.87549 5.37426C2.07699 6.23318 2.53347 7.0111 3.185 7.60595C1.99134 8.11968 0.953422 8.93772 0.175 9.9783C0.106056 10.0702 0.0558931 10.1748 0.0273755 10.2861C-0.00114215 10.3974 -0.00745601 10.5133 0.00879425 10.627C0.0250445 10.7408 0.0635408 10.8502 0.122085 10.9491C0.180629 11.048 0.258075 11.1344 0.35 11.2033ZM16.625 1.7533C17.1442 1.7533 17.6517 1.90725 18.0834 2.19569C18.5151 2.48413 18.8515 2.89409 19.0502 3.37375C19.2489 3.85341 19.3008 4.38121 19.1996 4.89041C19.0983 5.39961 18.8483 5.86734 18.4812 6.23445C18.114 6.60156 17.6463 6.85157 17.1371 6.95286C16.6279 7.05414 16.1001 7.00216 15.6205 6.80348C15.1408 6.6048 14.7308 6.26835 14.4424 5.83667C14.154 5.40499 14 4.89747 14 4.3783C14 3.6821 14.2766 3.01442 14.7688 2.52214C15.2611 2.02986 15.9288 1.7533 16.625 1.7533ZM6.125 1.7533C6.64418 1.7533 7.15169 1.90725 7.58337 2.19569C8.01505 2.48413 8.3515 2.89409 8.55018 3.37375C8.74886 3.85341 8.80085 4.38121 8.69956 4.89041C8.59828 5.39961 8.34827 5.86734 7.98116 6.23445C7.61404 6.60156 7.14631 6.85157 6.63711 6.95286C6.12791 7.05414 5.60011 7.00216 5.12046 6.80348C4.6408 6.6048 4.23083 6.26835 3.94239 5.83667C3.65395 5.40499 3.5 4.89747 3.5 4.3783C3.5 3.6821 3.77656 3.01442 4.26884 2.52214C4.76113 2.02986 5.42881 1.7533 6.125 1.7533ZM19.5781 18.9809C20.2297 18.3861 20.6861 17.6082 20.8876 16.7493C21.0891 15.8903 21.0263 14.9906 20.7073 14.168C20.3882 13.3455 19.828 12.6386 19.1001 12.1402C18.3721 11.6417 17.5105 11.375 16.6283 11.375C15.746 11.375 14.8844 11.6417 14.1565 12.1402C13.4286 12.6386 12.8683 13.3455 12.5493 14.168C12.2303 14.9906 12.1674 15.8903 12.3689 16.7493C12.5704 17.6082 13.0269 18.3861 13.6784 18.9809C12.8203 19.352 12.0408 19.8832 11.3816 20.5461C10.7223 19.8832 9.9428 19.352 9.08469 18.9809C9.73622 18.3861 10.1927 17.6082 10.3942 16.7493C10.5957 15.8903 10.5328 14.9906 10.2138 14.168C9.89481 13.3455 9.33457 12.6386 8.60664 12.1402C7.8787 11.6417 7.01708 11.375 6.13484 11.375C5.25261 11.375 4.39098 11.6417 3.66305 12.1402C2.93511 12.6386 2.37488 13.3455 2.05587 14.168C1.73686 14.9906 1.67398 15.8903 1.87549 16.7493C2.07699 17.6082 2.53347 18.3861 3.185 18.9809C1.99134 19.4947 0.953422 20.3127 0.175 21.3533C0.106056 21.4452 0.0558931 21.5498 0.0273755 21.6611C-0.00114215 21.7724 -0.00745601 21.8883 0.00879425 22.002C0.0250445 22.1158 0.0635408 22.2252 0.122085 22.3241C0.180629 22.423 0.258075 22.5093 0.35 22.5783C0.441925 22.6472 0.54653 22.6974 0.657842 22.7259C0.769153 22.7544 0.884992 22.7608 0.998744 22.7445C1.1125 22.7283 1.22193 22.6898 1.32081 22.6312C1.41968 22.5727 1.50606 22.4952 1.575 22.4033C2.10477 21.6969 2.79173 21.1236 3.58147 20.7287C4.37121 20.3339 5.24204 20.1283 6.125 20.1283C7.00796 20.1283 7.87879 20.3339 8.66853 20.7287C9.45827 21.1236 10.1452 21.6969 10.675 22.4033C10.8144 22.5888 11.0218 22.7113 11.2515 22.7439C11.4812 22.7765 11.7145 22.7166 11.9 22.5772C11.9661 22.528 12.0247 22.4694 12.0739 22.4033C12.6037 21.6969 13.2906 21.1236 14.0804 20.7287C14.8701 20.3339 15.741 20.1283 16.6239 20.1283C17.5069 20.1283 18.3777 20.3339 19.1674 20.7287C19.9572 21.1236 20.6441 21.6969 21.1739 22.4033C21.3133 22.5889 21.5207 22.7116 21.7505 22.7443C21.9804 22.7771 22.2138 22.7171 22.3995 22.5777C22.5851 22.4384 22.7078 22.2309 22.7405 22.0011C22.7732 21.7713 22.7133 21.5379 22.5739 21.3522C21.7994 20.3139 20.7666 19.4964 19.5781 18.9809ZM6.125 13.1283C6.64418 13.1283 7.15169 13.2822 7.58337 13.5707C8.01505 13.8591 8.3515 14.2691 8.55018 14.7488C8.74886 15.2284 8.80085 15.7562 8.69956 16.2654C8.59828 16.7746 8.34827 17.2423 7.98116 17.6094C7.61404 17.9766 7.14631 18.2266 6.63711 18.3279C6.12791 18.4291 5.60011 18.3772 5.12046 18.1785C4.6408 17.9798 4.23083 17.6433 3.94239 17.2117C3.65395 16.78 3.5 16.2725 3.5 15.7533C3.5 15.0571 3.77656 14.3894 4.26884 13.8971C4.76113 13.4049 5.42881 13.1283 6.125 13.1283ZM16.625 13.1283C17.1442 13.1283 17.6517 13.2822 18.0834 13.5707C18.5151 13.8591 18.8515 14.2691 19.0502 14.7488C19.2489 15.2284 19.3008 15.7562 19.1996 16.2654C19.0983 16.7746 18.8483 17.2423 18.4812 17.6094C18.114 17.9766 17.6463 18.2266 17.1371 18.3279C16.6279 18.4291 16.1001 18.3772 15.6205 18.1785C15.1408 17.9798 14.7308 17.6433 14.4424 17.2117C14.154 16.78 14 16.2725 14 15.7533C14 15.0571 14.2766 14.3894 14.7688 13.8971C15.2611 13.4049 15.9288 13.1283 16.625 13.1283Z" fill="#363636"/>
</svg>
