<svg width="28" height="20" viewBox="0 0 28 20" fill="none" xmlns="http://www.w3.org/2000/svg">
<path d="M4.125 8.25C5.6418 8.25 6.875 7.0168 6.875 5.5C6.875 3.9832 5.6418 2.75 4.125 2.75C2.6082 2.75 1.375 3.9832 1.375 5.5C1.375 7.0168 2.6082 8.25 4.125 8.25ZM23.375 8.25C24.8918 8.25 26.125 7.0168 26.125 5.5C26.125 3.9832 24.8918 2.75 23.375 2.75C21.8582 2.75 20.625 3.9832 20.625 5.5C20.625 7.0168 21.8582 8.25 23.375 8.25ZM24.75 9.625H22C21.2437 9.625 20.5605 9.93008 20.0621 10.4242C21.7937 11.3738 23.0227 13.0883 23.2891 15.125H26.125C26.8855 15.125 27.5 14.5105 27.5 13.75V12.375C27.5 10.8582 26.2668 9.625 24.75 9.625ZM13.75 9.625C16.4098 9.625 18.5625 7.47227 18.5625 4.8125C18.5625 2.15273 16.4098 0 13.75 0C11.0902 0 8.9375 2.15273 8.9375 4.8125C8.9375 7.47227 11.0902 9.625 13.75 9.625ZM17.05 11H16.6934C15.7996 11.4297 14.807 11.6875 13.75 11.6875C12.693 11.6875 11.7047 11.4297 10.8066 11H10.45C7.71719 11 5.5 13.2172 5.5 15.95V17.1875C5.5 18.3262 6.42383 19.25 7.5625 19.25H19.9375C21.0762 19.25 22 18.3262 22 17.1875V15.95C22 13.2172 19.7828 11 17.05 11ZM7.43789 10.4242C6.93945 9.93008 6.25625 9.625 5.5 9.625H2.75C1.2332 9.625 0 10.8582 0 12.375V13.75C0 14.5105 0.614453 15.125 1.375 15.125H4.20664C4.47734 13.0883 5.70625 11.3738 7.43789 10.4242Z" fill="#F9C900"/>
</svg>
